<svg xmlns="http://www.w3.org/2000/svg" xmlns:xlink="http://www.w3.org/1999/xlink" width="1140" height="955.1099999999999"><rect width="1140" height="955.1099999999999" rx="5" ry="5" class="a"></rect><circle cx="20" cy="20" r="7.5" class="b"></circle><circle cx="45" cy="20" r="7.5" class="c"></circle><circle cx="70" cy="20" r="7.5" class="d"></circle><svg height="890.1099999999999" viewBox="0 0 111 89.011" width="1110" x="15" xmlns="http://www.w3.org/2000/svg" xmlns:xlink="http://www.w3.org/1999/xlink" y="50"><style>.a{fill:rgb(40,45,53)}.b{fill:#ff5f58}.c{fill:#ffbd2e}.d{fill:#18c132}.e{font-family:Monaco,Consolas,Menlo,'Bitstream Vera Sans Mono','Powerline Symbols',monospace}.f{fill:rgb(168,204,140);font-weight:normal;text-decoration:none}.g{fill:rgb(185,192,203);font-weight:normal;text-decoration:none}.h{fill:rgb(219,171,121);font-weight:normal;text-decoration:none}.i{fill:transparent}.j{fill:rgb(111,118,131)}.k{fill:rgb(215,95,0);font-weight:bold;text-decoration:none}.l{fill:rgb(255,255,255);font-weight:bold;text-decoration:none}.m{fill:rgb(175,135,0);font-weight:bold;text-decoration:none}.n{fill:rgb(95,135,0);font-weight:bold;text-decoration:none}.o{fill:rgb(133,153,1);font-weight:bold;text-decoration:none}.p{fill:rgb(185,192,203);font-weight:bold;text-decoration:none}.q{fill:rgb(102,194,205);font-weight:normal;text-decoration:none}</style><g font-size="1.67" class="e"><defs><symbol id="1"><text x="0" y="1.67" class="f">✔</text><text x="2.004" y="1.67" class="g">Download</text><text x="11.021999999999998" y="1.67" class="g">and</text><text x="15.029999999999998" y="1.67" class="g">checksum</text><text x="24.048" y="1.67" class="g">verification</text><text x="37.074" y="1.67" class="g">completed.</text></symbol><symbol id="2"><text x="0" y="1.67" class="h">❯</text><text x="2.004" y="1.67" class="g">Extracting…</text></symbol><symbol id="3"><text x="0" y="1.67" class="f">✔</text><text x="2.004" y="1.67" class="g">Extraction</text><text x="13.026" y="1.67" class="g">completed.</text></symbol><symbol id="4"><text x="0" y="1.67" class="f">✔</text><text x="2.004" y="1.67" class="g">Testing</text><text x="10.02" y="1.67" class="g">completed.</text></symbol><symbol id="a"><rect height="40" width="111" x="0" y="0" class="i"></rect></symbol><symbol id="b"><rect class="j"></rect></symbol></defs><rect height="89.011" width="111" class="a"></rect><svg x="0" y="0" width="111"><svg x="0"><use xlink:href="#a"></use><rect height="2.171" width="1.1022" x="-0.0040000000000000036" y="84.64399999999999" class="j"></rect><text x="0" y="1.67" class="k">mathias</text><text x="8.016" y="1.67" class="l">at</text><text x="11.021999999999998" y="1.67" class="m">mathBook</text><text x="20.04" y="1.67" class="l">in</text><text x="23.045999999999996" y="1.67" class="n">/jsvu-demo</text><text x="0" y="3.8409999999999997" class="l">$</text><text x="2.004" y="3.8409999999999997" class="g">jsvu</text><text x="0" y="6.012" class="g">📦</text><text x="3.006" y="6.012" class="g">jsvu</text><text x="8.016" y="6.012" class="g">v1.0.0</text><text x="15.029999999999998" y="6.012" class="g">—</text><text x="17.034" y="6.012" class="g">the</text><text x="21.041999999999998" y="6.012" class="o">J</text><text x="22.043999999999997" y="6.012" class="g">ava</text><text x="25.05" y="6.012" class="o">S</text><text x="26.052" y="6.012" class="g">cript</text><text x="32.064" y="6.012" class="g">engine</text><text x="39.077999999999996" y="6.012" class="o">V</text><text x="40.08" y="6.012" class="g">ersion</text><text x="47.093999999999994" y="6.012" class="o">U</text><text x="48.096" y="6.012" class="g">pdater</text><text x="55.10999999999999" y="6.012" class="g">📦</text><text x="0" y="8.183" class="f">?</text><text x="2.004" y="8.183" class="p">What</text><text x="7.013999999999999" y="8.183" class="p">is</text><text x="10.02" y="8.183" class="p">your</text><text x="15.029999999999998" y="8.183" class="p">operating</text><text x="25.05" y="8.183" class="p">system?</text><text x="33.065999999999995" y="8.183" class="q">macOS</text><text x="39.077999999999996" y="8.183" class="q">64-bit</text><text x="0" y="10.354" class="f">?</text><text x="2.004" y="10.354" class="p">Which</text><text x="8.016" y="10.354" class="p">JavaScript</text><text x="19.037999999999997" y="10.354" class="p">engines</text><text x="27.054" y="10.354" class="p">would</text><text x="33.065999999999995" y="10.354" class="p">you</text><text x="37.074" y="10.354" class="p">like</text><text x="42.083999999999996" y="10.354" class="p">to</text><text x="45.089999999999996" y="10.354" class="p">install?</text><text x="54.108" y="10.354" class="q">Chakra/ChakraCore,</text><text x="73.146" y="10.354" class="q">JavaScriptCore,</text><text x="89.178" y="10.354" class="q">SpiderMonkey,</text><text x="103.20599999999999" y="10.354" class="q">V8</text><text x="0" y="12.525" class="f">✔</text><text x="2.004" y="12.525" class="g">Found</text><text x="8.016" y="12.525" class="g">latest</text><text x="15.029999999999998" y="12.525" class="g">Chakra</text><text x="22.043999999999997" y="12.525" class="g">version:</text><text x="31.061999999999998" y="12.525" class="g">v1.7.4.</text><text x="0" y="14.696" class="f">✔</text><text x="2.004" y="14.696" class="g">URL:</text><text x="7.013999999999999" y="14.696" class="g">https://aka.ms/chakracore/cc_osx_x64_1_7_4</text><text x="0" y="16.866999999999997" class="f">✔</text><text x="2.004" y="16.866999999999997" class="g">SHA-256</text><text x="10.02" y="16.866999999999997" class="g">checksum:</text><text x="20.04" y="16.866999999999997" class="g">71473323193c6285f268160e2ec5bf8e14d6b6bc8c4844040b7b408d750b8a2a</text><use xlink:href="#1" y="17.368"></use><use xlink:href="#2" y="19.539"></use><text x="0" y="23.380000000000003" class="g">Installing</text><text x="11.021999999999998" y="23.380000000000003" class="g">library</text><text x="19.037999999999997" y="23.380000000000003" class="g">to</text><text x="22.043999999999997" y="23.380000000000003" class="g">~/.jsvu/engines/chakra/lib/libChakraCore.dylib…</text><text x="0" y="25.550999999999995" class="g">Installing</text><text x="11.021999999999998" y="25.550999999999995" class="g">binary</text><text x="18.035999999999998" y="25.550999999999995" class="g">to</text><text x="21.041999999999998" y="25.550999999999995" class="g">~/.jsvu/engines/chakra/chakra…</text><text x="0" y="27.722" class="g">Installing</text><text x="11.021999999999998" y="27.722" class="g">symlink</text><text x="19.037999999999997" y="27.722" class="g">at</text><text x="22.043999999999997" y="27.722" class="g">~/.jsvu/chakra</text><text x="37.074" y="27.722" class="g">pointing</text><text x="46.09199999999999" y="27.722" class="g">to</text><text x="49.098" y="27.722" class="g">~/.jsvu/engines/chakra/chakra…</text><text x="0" y="29.893" class="g">Installing</text><text x="11.021999999999998" y="29.893" class="g">symlink</text><text x="19.037999999999997" y="29.893" class="g">at</text><text x="22.043999999999997" y="29.893" class="g">~/.jsvu/ch</text><text x="33.065999999999995" y="29.893" class="g">pointing</text><text x="42.083999999999996" y="29.893" class="g">to</text><text x="45.089999999999996" y="29.893" class="g">~/.jsvu/engines/chakra/chakra…</text><text x="0" y="32.064" class="g">Installing</text><text x="11.021999999999998" y="32.064" class="g">license</text><text x="19.037999999999997" y="32.064" class="g">to</text><text x="22.043999999999997" y="32.064" class="g">~/.jsvu/engines/chakra/LICENSE-chakra…</text><use xlink:href="#3" y="32.565"></use><use xlink:href="#4" y="34.736"></use><text x="0" y="38.577000000000005" class="f">✔</text><text x="2.004" y="38.577000000000005" class="g">Chakra</text><text x="9.017999999999999" y="38.577000000000005" class="g">v1.7.4</text><text x="16.032" y="38.577000000000005" class="g">has</text><text x="20.04" y="38.577000000000005" class="g">been</text><text x="25.05" y="38.577000000000005" class="g">installed!</text><text x="36.071999999999996" y="38.577000000000005" class="g">🎉</text><text x="0" y="40.748000000000005" class="f">✔</text><text x="2.004" y="40.748000000000005" class="g">Found</text><text x="8.016" y="40.748000000000005" class="g">latest</text><text x="15.029999999999998" y="40.748000000000005" class="g">JavaScriptCore</text><text x="30.059999999999995" y="40.748000000000005" class="g">version:</text><text x="39.077999999999996" y="40.748000000000005" class="g">v225521.</text><text x="0" y="42.919" class="f">✔</text><text x="2.004" y="42.919" class="g">URL:</text><text x="7.013999999999999" y="42.919" class="g">https://s3-us-west-2.amazonaws.com/minified-archives.webkit.org/mac-highsierra-x86_64-release/225521.zip</text><text x="0" y="45.09" class="f">✔</text><text x="2.004" y="45.09" class="g">Download</text><text x="11.021999999999998" y="45.09" class="g">completed.</text><use xlink:href="#2" y="45.591"></use><text x="0" y="49.431999999999995" class="g">Installing</text><text x="11.021999999999998" y="49.431999999999995" class="g">library</text><text x="19.037999999999997" y="49.431999999999995" class="g">to</text><text x="22.043999999999997" y="49.431999999999995" class="g">~/.jsvu/engines/javascriptcore/JavaScriptCore.framework/Headers…</text><text x="0" y="51.603" class="g">Installing</text><text x="11.021999999999998" y="51.603" class="g">library</text><text x="19.037999999999997" y="51.603" class="g">to</text><text x="22.043999999999997" y="51.603" class="g">~/.jsvu/engines/javascriptcore/JavaScriptCore.framework/JavaScriptCore…</text><text x="0" y="53.774" class="g">Installing</text><text x="11.021999999999998" y="53.774" class="g">library</text><text x="19.037999999999997" y="53.774" class="g">to</text><text x="22.043999999999997" y="53.774" class="g">~/.jsvu/engines/javascriptcore/JavaScriptCore.framework/PrivateHeaders…</text><text x="0" y="55.945" class="g">Installing</text><text x="11.021999999999998" y="55.945" class="g">library</text><text x="19.037999999999997" y="55.945" class="g">to</text><text x="22.043999999999997" y="55.945" class="g">~/.jsvu/engines/javascriptcore/JavaScriptCore.framework/Resources…</text><text x="0" y="58.11600000000001" class="g">Installing</text><text x="11.021999999999998" y="58.11600000000001" class="g">library</text><text x="19.037999999999997" y="58.11600000000001" class="g">to</text><text x="22.043999999999997" y="58.11600000000001" class="g">~/.jsvu/engines/javascriptcore/JavaScriptCore.framework/Versions…</text><text x="0" y="60.287" class="g">Installing</text><text x="11.021999999999998" y="60.287" class="g">binary</text><text x="18.035999999999998" y="60.287" class="g">to</text><text x="21.041999999999998" y="60.287" class="g">~/.jsvu/engines/javascriptcore/javascriptcore…</text><text x="0" y="62.458" class="g">Installing</text><text x="11.021999999999998" y="62.458" class="g">wrapper</text><text x="19.037999999999997" y="62.458" class="g">script</text><text x="26.052" y="62.458" class="g">to</text><text x="29.058" y="62.458" class="g">~/.jsvu/javascriptcore…</text><text x="0" y="64.629" class="g">Installing</text><text x="11.021999999999998" y="64.629" class="g">symlink</text><text x="19.037999999999997" y="64.629" class="g">at</text><text x="22.043999999999997" y="64.629" class="g">~/.jsvu/jsc</text><text x="34.068" y="64.629" class="g">pointing</text><text x="43.086" y="64.629" class="g">to</text><text x="46.09199999999999" y="64.629" class="g">~/.jsvu/javascriptcore…</text><use xlink:href="#3" y="65.13"></use><use xlink:href="#4" y="67.301"></use><text x="0" y="71.142" class="f">✔</text><text x="2.004" y="71.142" class="g">JavaScriptCore</text><text x="17.034" y="71.142" class="g">v225521</text><text x="25.05" y="71.142" class="g">has</text><text x="29.058" y="71.142" class="g">been</text><text x="34.068" y="71.142" class="g">installed!</text><text x="45.089999999999996" y="71.142" class="g">🎉</text><text x="0" y="73.313" class="f">✔</text><text x="2.004" y="73.313" class="g">Found</text><text x="8.016" y="73.313" class="g">latest</text><text x="15.029999999999998" y="73.313" class="g">SpiderMonkey</text><text x="28.055999999999997" y="73.313" class="g">version:</text><text x="37.074" y="73.313" class="g">v58.0b9.</text><text x="0" y="75.48400000000001" class="f">✔</text><text x="2.004" y="75.48400000000001" class="g">URL:</text><text x="7.013999999999999" y="75.48400000000001" class="g">https://archive.mozilla.org/pub/firefox/releases/58.0b9/jsshell/jsshell-mac.zip</text><text x="0" y="77.655" class="f">✔</text><text x="2.004" y="77.655" class="g">SHA-256</text><text x="10.02" y="77.655" class="g">checksum:</text><text x="20.04" y="77.655" class="g">af9ccc8e278a4350a254a9328b183ed14f539b975c06e647836d35a29173894d</text><use xlink:href="#1" y="78.156"></use><use xlink:href="#2" y="80.327"></use><text x="0" y="84.16799999999999" class="g">Installing</text><text x="11.021999999999998" y="84.16799999999999" class="g">library</text><text x="19.037999999999997" y="84.16799999999999" class="g">to</text><text x="22.043999999999997" y="84.16799999999999" class="g">~/.jsvu/engines/spidermonkey/libmozglue.dylib…</text></svg></svg></g></svg></svg>